<svg version="1.1" xmlns="http://www.w3.org/2000/svg" viewBox="0 0 1072.4999999999995 1721.9309809213805" width="1072.4999999999995" height="1721.9309809213805">
  <!-- svg-source:excalidraw -->
  
  <defs>
    <style class="style-fonts">
      @font-face {
        font-family: "Virgil";
        src: url("https://excalidraw.com/Virgil.woff2");
      }
      @font-face {
        font-family: "Cascadia";
        src: url("https://excalidraw.com/Cascadia.woff2");
      }
      @font-face {
        font-family: "Assistant";
        src: url("https://excalidraw.com/Assistant-Regular.woff2");
      }
    </style>
    
  </defs>
  <rect x="0" y="0" width="1072.4999999999995" height="1721.9309809213805" fill="#ffffff"></rect><g stroke-linecap="round" transform="translate(10 10) rotate(0 526.2499999999998 850.9654904606903)"><path d="M32 0 C405.63 0.54, 778.55 -0.49, 1020.5 0 M32 0 C378.21 0.84, 724.04 0.21, 1020.5 0 M1020.5 0 C1040.92 0.31, 1051.15 10.78, 1052.5 32 M1020.5 0 C1042.85 -0.35, 1052.59 8.4, 1052.5 32 M1052.5 32 C1053.83 417.3, 1054.22 803.96, 1052.5 1669.93 M1052.5 32 C1046.61 666.28, 1046.95 1300.87, 1052.5 1669.93 M1052.5 1669.93 C1051.49 1689.37, 1040.35 1702.42, 1020.5 1701.93 M1052.5 1669.93 C1054.44 1692.9, 1043.59 1702.72, 1020.5 1701.93 M1020.5 1701.93 C714.05 1701.53, 406.92 1701.88, 32 1701.93 M1020.5 1701.93 C701.15 1705.7, 381.93 1705.7, 32 1701.93 M32 1701.93 C9.51 1702.4, -0.37 1689.33, 0 1669.93 M32 1701.93 C12.89 1700.32, 0.58 1690.83, 0 1669.93 M0 1669.93 C3.2 1158.84, 3.29 647.59, 0 32 M0 1669.93 C-1.01 1122.9, -0.93 575.57, 0 32 M0 32 C1.64 9.75, 10.59 1.06, 32 0 M0 32 C-0.56 9.46, 10.53 1.26, 32 0" stroke="#1e1e1e" stroke-width="2" fill="none"></path></g><g stroke-linecap="round" transform="translate(30 32.5) rotate(0 504.9999999999998 53.749999999999986)"><path d="M26.87 0 C367.47 2.24, 708.2 3.79, 983.12 0 M26.87 0 C271.28 1.09, 516.03 0.85, 983.12 0 M983.12 0 C999.09 -1.34, 1011.4 9.17, 1010 26.87 M983.12 0 C1001.02 -1.47, 1009.37 10.47, 1010 26.87 M1010 26.87 C1008.02 40.22, 1009.92 55.65, 1010 80.62 M1010 26.87 C1008.75 37.36, 1009.92 49.88, 1010 80.62 M1010 80.62 C1009.58 100.41, 1000.24 109.05, 983.12 107.5 M1010 80.62 C1007.85 98.15, 1003.32 107.52, 983.12 107.5 M983.12 107.5 C735.57 105.12, 487.1 104.96, 26.87 107.5 M983.12 107.5 C653.3 105.13, 323.9 105.01, 26.87 107.5 M26.87 107.5 C10.58 105.59, 0.16 99.85, 0 80.62 M26.87 107.5 C10.09 109.52, 0.82 100.68, 0 80.62 M0 80.62 C1.42 71.19, -0.21 59.86, 0 26.87 M0 80.62 C-1.21 63.84, -1.22 49.25, 0 26.87 M0 26.87 C-1.73 7.83, 9.71 -1.93, 26.87 0 M0 26.87 C-1.07 11.16, 11.22 -0.7, 26.87 0" stroke="#1e1e1e" stroke-width="2" fill="none"></path></g><g stroke-linecap="round" transform="translate(75 62.49999999999997) rotate(0 121.24999999999989 23.75)"><path d="M11.88 0 C60.21 1.73, 110.81 1.01, 230.62 0 M11.88 0 C76.63 0.72, 140.07 0.61, 230.62 0 M230.62 0 C237.05 1.16, 243.48 5.51, 242.5 11.88 M230.62 0 C237.4 1.78, 242.62 4.25, 242.5 11.88 M242.5 11.88 C243.9 16.4, 240.51 22.39, 242.5 35.63 M242.5 11.88 C242.58 17.1, 242.01 23.21, 242.5 35.63 M242.5 35.63 C242.31 44.39, 239.02 48.42, 230.62 47.5 M242.5 35.63 C243.73 42.54, 240.22 46.43, 230.62 47.5 M230.62 47.5 C158.07 45.43, 83.78 45.57, 11.88 47.5 M230.62 47.5 C148.27 47.18, 67.57 47.18, 11.88 47.5 M11.88 47.5 C1.96 49, -1.17 42.24, 0 35.63 M11.88 47.5 C3.74 48.66, 1.32 42.99, 0 35.63 M0 35.63 C-1.48 27.7, -0.9 21.25, 0 11.88 M0 35.63 C0.81 26.85, 0.93 19.62, 0 11.88 M0 11.88 C1.55 2.77, 5.66 1.5, 11.88 0 M0 11.88 C-0.65 4.35, 5.35 -1.12, 11.88 0" stroke="#1e1e1e" stroke-width="2" fill="none"></path></g><g stroke-linecap="round" transform="translate(562.4999999999995 67.49999999999997) rotate(0 55 15)"><path d="M7.5 0 C40.79 1.34, 72.1 -0.51, 102.5 0 M7.5 0 C31.16 0.3, 54.92 0.61, 102.5 0 M102.5 0 C107.67 1.42, 110.28 2.23, 110 7.5 M102.5 0 C108.17 -1.24, 108.88 0.45, 110 7.5 M110 7.5 C110.47 11.98, 109.16 19.96, 110 22.5 M110 7.5 C109.71 12.44, 110.19 17.64, 110 22.5 M110 22.5 C108.56 27.6, 108.5 28.01, 102.5 30 M110 22.5 C109.97 28.44, 108.39 28.93, 102.5 30 M102.5 30 C67.85 30.36, 30.82 29.85, 7.5 30 M102.5 30 C82.52 29.98, 61.3 30.16, 7.5 30 M7.5 30 C2.34 31, -0.15 27.78, 0 22.5 M7.5 30 C3.37 28.45, -2 27.43, 0 22.5 M0 22.5 C0.65 18.38, 0.9 14.51, 0 7.5 M0 22.5 C0.24 19.7, -0.66 15.96, 0 7.5 M0 7.5 C-1.54 2.13, 0.53 -1.32, 7.5 0 M0 7.5 C-1.63 3.13, 1.66 -2.05, 7.5 0" stroke="#1e1e1e" stroke-width="2" fill="none"></path></g><g stroke-linecap="round" transform="translate(704.9999999999995 69.99999999999997) rotate(0 58.75 12.5)"><path d="M6.25 0 C34.03 -0.94, 63.13 -0.7, 111.25 0 M6.25 0 C43.37 -0.82, 78.86 -0.17, 111.25 0 M111.25 0 C115.59 1.77, 115.56 3.13, 117.5 6.25 M111.25 0 C116.21 1.58, 119.46 0.37, 117.5 6.25 M117.5 6.25 C118.45 9.74, 117.86 14.17, 117.5 18.75 M117.5 6.25 C116.93 9.94, 117.15 12.73, 117.5 18.75 M117.5 18.75 C118.07 23.26, 117.28 23.63, 111.25 25 M117.5 18.75 C118.62 24.46, 115.12 25.75, 111.25 25 M111.25 25 C82.29 25.82, 52.47 24.53, 6.25 25 M111.25 25 C85.75 24.93, 61.07 24.49, 6.25 25 M6.25 25 C1.93 25.06, -0.13 24.67, 0 18.75 M6.25 25 C2.56 27.04, -1.61 21.43, 0 18.75 M0 18.75 C0.65 15.42, 0.87 13.1, 0 6.25 M0 18.75 C0.63 14.3, -0.04 8.97, 0 6.25 M0 6.25 C-1.34 3.89, 3.42 0.05, 6.25 0 M0 6.25 C0.68 2.56, 4.26 -0.22, 6.25 0" stroke="#1e1e1e" stroke-width="2" fill="none"></path></g><g stroke-linecap="round" transform="translate(862.4999999999995 72.49999999999997) rotate(0 56.25 10)"><path d="M5 0 C30.51 -1.73, 53.44 0.68, 107.5 0 M5 0 C42.83 -1.05, 80.93 -0.94, 107.5 0 M107.5 0 C112.26 -0.86, 114.4 -0.06, 112.5 5 M107.5 0 C108.58 -1.68, 111.01 2.89, 112.5 5 M112.5 5 C113.16 7.34, 112.02 10.01, 112.5 15 M112.5 5 C112.86 7.58, 112.02 11.01, 112.5 15 M112.5 15 C111.07 17.42, 110.57 19.13, 107.5 20 M112.5 15 C110.62 20.39, 110.59 20.46, 107.5 20 M107.5 20 C69.84 17.9, 30.82 21.57, 5 20 M107.5 20 C66.1 20.85, 26.49 20.35, 5 20 M5 20 C0.35 20.99, 1.75 18.36, 0 15 M5 20 C2.25 18.83, -0.26 19.86, 0 15 M0 15 C0.95 12.63, 0.5 8.39, 0 5 M0 15 C0.28 12.8, -0.11 10.37, 0 5 M0 5 C-1.3 2.96, 1.45 -0.06, 5 0 M0 5 C-1.32 0.44, 3.18 -0.22, 5 0" stroke="#1e1e1e" stroke-width="2" fill="none"></path></g><g stroke-linecap="round" transform="translate(40 152.5) rotate(0 498.7499999999998 699.329835076298)"><path d="M32 0 C248.24 2.72, 462.83 2.08, 965.5 0 M32 0 C231.9 -2.43, 431.65 -2.63, 965.5 0 M965.5 0 C988.15 -0.19, 998.82 9.06, 997.5 32 M965.5 0 C985.96 0.21, 999 12.79, 997.5 32 M997.5 32 C994.53 507.56, 994.62 982.04, 997.5 1366.66 M997.5 32 C997.99 357.19, 997.73 682.55, 997.5 1366.66 M997.5 1366.66 C998.81 1389.02, 986.08 1397.88, 965.5 1398.66 M997.5 1366.66 C999.44 1386.79, 984.63 1396.74, 965.5 1398.66 M965.5 1398.66 C759.46 1397.07, 551.9 1396.05, 32 1398.66 M965.5 1398.66 C769.43 1397.3, 573.45 1397.66, 32 1398.66 M32 1398.66 C9.74 1396.88, 0.08 1388.06, 0 1366.66 M32 1398.66 C9.35 1397.9, -1.04 1389.74, 0 1366.66 M0 1366.66 C-1.21 948.89, -1.59 530.47, 0 32 M0 1366.66 C2.3 940.53, 2.96 513.73, 0 32 M0 32 C-1.49 12.15, 10.05 0.78, 32 0 M0 32 C1.85 8.68, 10.92 -1.43, 32 0" stroke="#1e1e1e" stroke-width="2" fill="none"></path></g><g stroke-linecap="round" transform="translate(50 1599.9110221523065) rotate(0 494.9999999999998 36.25)"><path d="M18.13 0 C341.74 0.22, 664.94 -0.56, 971.87 0 M18.13 0 C233.51 2.16, 449.13 2.28, 971.87 0 M971.87 0 C984.5 1.37, 990.17 7.88, 990 18.13 M971.87 0 C986.17 1.96, 989.42 7.96, 990 18.13 M990 18.13 C991.95 28.3, 989.3 36.21, 990 54.38 M990 18.13 C990.39 27.46, 988.91 38.62, 990 54.38 M990 54.38 C988.02 67.26, 985.56 72.15, 971.87 72.5 M990 54.38 C988.93 68.27, 982.01 74.46, 971.87 72.5 M971.87 72.5 C648.5 71.15, 323.97 71.28, 18.13 72.5 M971.87 72.5 C694.35 70.74, 416.27 70.21, 18.13 72.5 M18.13 72.5 C4.18 74.08, 0.55 67.1, 0 54.38 M18.13 72.5 C6.32 71.35, -1.86 66.66, 0 54.38 M0 54.38 C-1.3 39.95, -1.35 27.83, 0 18.13 M0 54.38 C0.83 44.11, -0.55 34.61, 0 18.13 M0 18.13 C-1.26 4.46, 7.52 -1.74, 18.13 0 M0 18.13 C0.27 7.78, 4.35 0.02, 18.13 0" stroke="#1e1e1e" stroke-width="2" fill="none"></path></g><g stroke-linecap="round" transform="translate(404.9999999999998 1622.4110221523065) rotate(0 142.4999999999999 13.75)"><path d="M6.88 0 C87.5 -0.73, 167.11 -0.55, 278.12 0 M6.88 0 C94.34 -0.88, 181.35 -1.95, 278.12 0 M278.12 0 C283.95 1.06, 286.93 3.48, 285 6.88 M278.12 0 C281.2 -0.16, 287.24 2.23, 285 6.88 M285 6.88 C284.15 9.31, 283.9 14.49, 285 20.63 M285 6.88 C285.49 9.18, 285.36 12.88, 285 20.63 M285 20.63 C285.67 25.45, 282.97 26.2, 278.12 27.5 M285 20.63 C284.44 25.82, 283.41 25.73, 278.12 27.5 M278.12 27.5 C170.88 29.73, 60.03 30.58, 6.88 27.5 M278.12 27.5 C195.18 26.5, 113.69 26.49, 6.88 27.5 M6.88 27.5 C1.79 25.78, -1.1 25.74, 0 20.63 M6.88 27.5 C2.72 26.72, -1.22 26.63, 0 20.63 M0 20.63 C-0.1 17.58, 0.6 12.5, 0 6.88 M0 20.63 C-0.4 16.79, 0.22 13.64, 0 6.88 M0 6.88 C-0.85 3.79, 1.24 -0.31, 6.88 0 M0 6.88 C-0.28 3.79, 2.87 0.76, 6.88 0" stroke="#1e1e1e" stroke-width="2" fill="none"></path></g><g stroke-linecap="round" transform="translate(60 175) rotate(0 478.7499999999998 157.49999999999994)"><path d="M32 0 C240.84 -1.25, 451.63 -1.33, 925.5 0 M32 0 C286.17 -2.19, 540.29 -2.04, 925.5 0 M925.5 0 C947.13 -1.99, 958.15 9.71, 957.5 32 M925.5 0 C947.6 0.9, 955.31 9.04, 957.5 32 M957.5 32 C959.27 122.15, 957.99 212.71, 957.5 283 M957.5 32 C956.27 127.93, 955.89 223.91, 957.5 283 M957.5 283 C958.57 304.05, 948.8 315.44, 925.5 315 M957.5 283 C955.65 302.44, 945.66 316.79, 925.5 315 M925.5 315 C745.41 313.31, 565.66 312.5, 32 315 M925.5 315 C611.08 315.23, 296.01 315.22, 32 315 M32 315 C8.82 313.94, -0.57 303.54, 0 283 M32 315 C12.15 316.29, 0.4 306.06, 0 283 M0 283 C-0.11 207.67, 0.82 130.17, 0 32 M0 283 C-0.73 198.91, 0.43 115.62, 0 32 M0 32 C-0.21 10.31, 9.74 1.86, 32 0 M0 32 C-1.25 10.11, 9.46 0.06, 32 0" stroke="#1e1e1e" stroke-width="2" fill="none"></path></g><g stroke-linecap="round" transform="translate(67.5 519.9999999999999) rotate(0 471.2499999999998 173.7499999999999)"><path d="M32 0 C298.69 3.18, 562.38 4.86, 910.5 0 C929.77 -0.05, 940.5 10.1, 942.5 32 C941.07 118.33, 939.29 206.25, 942.5 315.5 C940.36 335.96, 930.71 344.7, 910.5 347.5 C684.47 341.84, 455.79 340.2, 32 347.5 C9.33 348.73, -0.05 333.96, 0 315.5 C1.02 242.42, -1.08 171.88, 0 32 C2.5 7.87, 12.98 1.83, 32 0" stroke="none" stroke-width="0" fill="#ffffff"></path><path d="M32 0 C259.43 -2.29, 486.26 -2.54, 910.5 0 M32 0 C233.59 -2.06, 435.75 -2.1, 910.5 0 M910.5 0 C931.92 1.14, 942.91 11.69, 942.5 32 M910.5 0 C930.34 -1.01, 944.61 12.89, 942.5 32 M942.5 32 C941.32 104.05, 942.06 176.28, 942.5 315.5 M942.5 32 C944.46 115.41, 944.09 199.39, 942.5 315.5 M942.5 315.5 C942.75 336.97, 929.89 346.59, 910.5 347.5 M942.5 315.5 C943.24 338.98, 930.8 346.83, 910.5 347.5 M910.5 347.5 C643.91 347.03, 377.18 346.93, 32 347.5 M910.5 347.5 C684.01 350.72, 457.89 351.02, 32 347.5 M32 347.5 C8.98 348.13, 0.17 336.62, 0 315.5 M32 347.5 C9.82 346.28, 2.25 336.16, 0 315.5 M0 315.5 C1.12 210.9, -0.68 107.31, 0 32 M0 315.5 C-1.53 238.99, -1.88 160.95, 0 32 M0 32 C-1.32 10.42, 10.43 1, 32 0 M0 32 C-0.12 11.02, 12.7 1.49, 32 0" stroke="#1e1e1e" stroke-width="2" fill="none"></path></g><g stroke-linecap="round" transform="translate(75 907.4999999999997) rotate(0 471.2499999999998 153.90335072225525)"><path d="M32 0 C338.2 -1.65, 645.48 -1.68, 910.5 0 C928.59 2.6, 945.49 12.57, 942.5 32 C938.47 99.8, 937.63 171.98, 942.5 275.81 C941.95 299.52, 935.17 305.58, 910.5 307.81 C654.58 314.71, 399.32 315.09, 32 307.81 C8.26 310.15, 2.75 299.28, 0 275.81 C5.83 192.62, 5.55 107.93, 0 32 C2.26 12.51, 7.2 0.42, 32 0" stroke="none" stroke-width="0" fill="#e5e7eb"></path><path d="M32 0 C318.23 1.35, 604.37 1.53, 910.5 0 M32 0 C354.96 -2.25, 678.99 -1.88, 910.5 0 M910.5 0 C932.05 0.38, 940.8 8.85, 942.5 32 M910.5 0 C933.97 0.91, 943.08 9.37, 942.5 32 M942.5 32 C944.45 92.19, 943.4 151.96, 942.5 275.81 M942.5 32 C941.1 105.17, 941.25 179.76, 942.5 275.81 M942.5 275.81 C944.48 296.26, 931.52 307.57, 910.5 307.81 M942.5 275.81 C941.94 299.4, 932.79 308.12, 910.5 307.81 M910.5 307.81 C590.8 308.77, 270.63 308.69, 32 307.81 M910.5 307.81 C572.02 305.96, 233.94 305.78, 32 307.81 M32 307.81 C10.13 308.62, -0.62 296.2, 0 275.81 M32 307.81 C9.4 310.08, 0.25 297.09, 0 275.81 M0 275.81 C0.81 190.53, 0.64 104.29, 0 32 M0 275.81 C0.19 211.6, -0.3 146.15, 0 32 M0 32 C-1.35 10.88, 11.73 -0.49, 32 0 M0 32 C-1.07 8.73, 11.58 0.86, 32 0" stroke="#1e1e1e" stroke-width="2" fill="none"></path></g><g stroke-linecap="round" transform="translate(75 1258.3684006147373) rotate(0 468.7499999999998 122.06850369205108)"><path d="M32 0 C374.34 4.99, 716.56 4.88, 905.5 0 C926.2 3.17, 936.13 9.34, 937.5 32 C935.42 92.78, 939.59 159.91, 937.5 212.14 C935.49 236.68, 926.79 242.03, 905.5 244.14 C674.02 246.51, 441.29 247.62, 32 244.14 C12.99 242.62, -3.54 231.82, 0 212.14 C0.94 144.67, -1.71 73.04, 0 32 C-1.82 9.17, 11.51 1.32, 32 0" stroke="none" stroke-width="0" fill="#1e1e1e"></path><path d="M32 0 C279.36 -1.34, 525.27 -1.15, 905.5 0 M32 0 C308.22 2.45, 583.94 2.47, 905.5 0 M905.5 0 C928.73 -0.2, 935.81 12.61, 937.5 32 M905.5 0 C925.29 1.04, 936.75 9.84, 937.5 32 M937.5 32 C936.14 103.7, 937.77 173.72, 937.5 212.14 M937.5 32 C938.23 85.04, 939.84 138.96, 937.5 212.14 M937.5 212.14 C938.2 235.16, 925.48 242.69, 905.5 244.14 M937.5 212.14 C936.94 232.94, 924.74 245.79, 905.5 244.14 M905.5 244.14 C649.81 246.97, 393.8 247.2, 32 244.14 M905.5 244.14 C624.94 246.89, 344.58 246.33, 32 244.14 M32 244.14 C9.68 243.36, -1.24 232.3, 0 212.14 M32 244.14 C9.33 243.78, -0.43 231.98, 0 212.14 M0 212.14 C1.25 167.07, 1.94 120.99, 0 32 M0 212.14 C-0.91 151.79, -2.36 91.13, 0 32 M0 32 C1.45 10.82, 10.84 -0.93, 32 0 M0 32 C-1.49 12.35, 10.7 0.38, 32 0" stroke="#1e1e1e" stroke-width="2" fill="none"></path></g><g stroke-linecap="round" transform="translate(184.99999999999977 1298.3684006147373) rotate(0 351.2499999999999 80.67422092283152)"><path d="M32 0 C174.12 3.95, 314.27 2.6, 670.5 0 C694.5 -0.2, 702.21 10.95, 702.5 32 C702.58 62.64, 707.57 89.02, 702.5 129.35 C699.16 151.81, 693.86 164.48, 670.5 161.35 C512.03 158.21, 353.61 156.35, 32 161.35 C13.83 164.46, -3.17 147.23, 0 129.35 C-1.8 102.3, 4.04 72.21, 0 32 C-2.96 8.86, 10.75 -2.86, 32 0" stroke="none" stroke-width="0" fill="#3882f6"></path><path d="M32 0 C273.59 -1.14, 515.84 -0.84, 670.5 0 M32 0 C278.61 0.31, 524.47 0.17, 670.5 0 M670.5 0 C692.15 -1.91, 701.07 9.43, 702.5 32 M670.5 0 C690.74 -0.82, 701.07 9.7, 702.5 32 M702.5 32 C702.88 64.21, 705.27 100.51, 702.5 129.35 M702.5 32 C701.56 62.9, 701.1 93.7, 702.5 129.35 M702.5 129.35 C703.96 148.88, 691.97 161.16, 670.5 161.35 M702.5 129.35 C704.29 150.17, 692.05 161.48, 670.5 161.35 M670.5 161.35 C419.37 163.43, 170.11 162.7, 32 161.35 M670.5 161.35 C480.55 162.09, 290.75 162.22, 32 161.35 M32 161.35 C11.78 160, -1.67 151.57, 0 129.35 M32 161.35 C8.61 161.74, -0.27 151.64, 0 129.35 M0 129.35 C1.08 99.19, -0.68 65.43, 0 32 M0 129.35 C0.32 97.08, -1.11 65.93, 0 32 M0 32 C-0.82 11.09, 11.61 0.49, 32 0 M0 32 C0.46 11.8, 8.51 -1.38, 32 0" stroke="#1e1e1e" stroke-width="2" fill="none"></path></g><g stroke-linecap="round" transform="translate(224.50113887375346 1325.799040574067) rotate(0 214.71954645982032 55.771310768784474)"><path d="M27.89 0 C165.18 1.52, 304.11 3.25, 401.55 0 C417.23 -0.56, 428.99 6.59, 429.44 27.89 C432.11 46, 431.1 67.56, 429.44 83.66 C426.42 99.98, 417.82 114.38, 401.55 111.54 C254.08 113.32, 110.36 115.26, 27.89 111.54 C6.58 112.75, -1.33 99.79, 0 83.66 C-2.26 63.07, -0.6 45.72, 0 27.89 C-2.66 8.4, 9.94 0.55, 27.89 0" stroke="none" stroke-width="0" fill="#3882f6"></path><path d="M27.89 0 C170.05 2.21, 314.22 1.05, 401.55 0 M27.89 0 C164.92 0.48, 302.36 0.54, 401.55 0 M401.55 0 C421.64 0.66, 429.19 8.27, 429.44 27.89 M401.55 0 C419.16 2.17, 431.67 9.26, 429.44 27.89 M429.44 27.89 C431.02 47.71, 430.32 68.6, 429.44 83.66 M429.44 27.89 C429.34 43.83, 430.52 59.78, 429.44 83.66 M429.44 83.66 C427.6 101.88, 421.64 110.15, 401.55 111.54 M429.44 83.66 C430.86 100.56, 418.47 111.52, 401.55 111.54 M401.55 111.54 C265.12 112.32, 128.71 114.01, 27.89 111.54 M401.55 111.54 C297.67 109.79, 192.29 110.3, 27.89 111.54 M27.89 111.54 C9.85 109.88, 0.57 100.27, 0 83.66 M27.89 111.54 C8.89 111.5, 2.03 104.23, 0 83.66 M0 83.66 C-1.62 69.03, 1 53.86, 0 27.89 M0 83.66 C-0.93 67.26, -1.32 52.53, 0 27.89 M0 27.89 C-0.28 9.96, 9.01 1.53, 27.89 0 M0 27.89 C-2.15 7.6, 8.93 -0.8, 27.89 0" stroke="#1e1e1e" stroke-width="2" fill="none"></path></g><g stroke-linecap="round" transform="translate(698.5572804084218 1325.799040574067) rotate(0 79.4741178455181 52.982745230345245)"><path d="M26.49 0 C55.72 0.93, 75.85 3.6, 132.46 0 C148.44 -0.16, 156.49 12.3, 158.95 26.49 C158.35 46.68, 159.1 62.34, 158.95 79.47 C156.11 96.17, 147.26 103.85, 132.46 105.97 C91.69 100.65, 49.98 106.99, 26.49 105.97 C10.02 105.18, 0.3 96.81, 0 79.47 C3.79 67.93, 1.53 54.59, 0 26.49 C1.08 8.61, 12.42 -0.72, 26.49 0" stroke="none" stroke-width="0" fill="#3882f6"></path><path d="M26.49 0 C56.09 -1.34, 86.98 -0.55, 132.46 0 M26.49 0 C60.86 0.74, 93.27 -0.39, 132.46 0 M132.46 0 C148.83 1.57, 160.8 7.53, 158.95 26.49 M132.46 0 C151.13 -0.84, 158.92 11.08, 158.95 26.49 M158.95 26.49 C157.81 45.61, 159.39 65.68, 158.95 79.47 M158.95 26.49 C158.07 41.36, 157.75 55.86, 158.95 79.47 M158.95 79.47 C159.3 97.44, 148.79 105.1, 132.46 105.97 M158.95 79.47 C157.66 96.83, 151.5 106.59, 132.46 105.97 M132.46 105.97 C111.92 108.8, 88.49 106.8, 26.49 105.97 M132.46 105.97 C96.46 105.79, 60.4 104.62, 26.49 105.97 M26.49 105.97 C8.88 106.33, -1.69 97.17, 0 79.47 M26.49 105.97 C7.55 104.41, 0.02 96.52, 0 79.47 M0 79.47 C1.89 64.46, 1.34 49.39, 0 26.49 M0 79.47 C-0.11 62.52, -0.37 47.91, 0 26.49 M0 26.49 C-0.03 8.76, 7.14 -0.71, 26.49 0 M0 26.49 C1.34 7.99, 9.63 -1.08, 26.49 0" stroke="#1e1e1e" stroke-width="2" fill="none"></path></g><g stroke-linecap="round" transform="translate(732.3812978354549 1361.3481870797837) rotate(0 46.011331384247114 17.5)"><path d="M8.75 0 C23.15 2.24, 44.81 3.72, 83.27 0 C91.82 1.75, 89.46 3.78, 92.02 8.75 C93.12 12.87, 94.33 21.42, 92.02 26.25 C90.14 34.88, 86.34 34.72, 83.27 35 C60.75 33.9, 30.35 35.39, 8.75 35 C0.79 38.23, -2.35 35.63, 0 26.25 C-2.34 19.95, 0.79 14.39, 0 8.75 C2.39 2.68, 0.4 2.67, 8.75 0" stroke="none" stroke-width="0" fill="#3882f6"></path><path d="M8.75 0 C30.29 1.79, 52.52 1.33, 83.27 0 M8.75 0 C27.34 1.34, 46.61 -0.41, 83.27 0 M83.27 0 C90.81 -0.93, 91.93 1.55, 92.02 8.75 M83.27 0 C91.32 1.36, 91.31 1.96, 92.02 8.75 M92.02 8.75 C91.02 12.48, 91.61 17.57, 92.02 26.25 M92.02 8.75 C91.34 13.35, 91.36 17.71, 92.02 26.25 M92.02 26.25 C93.62 32.75, 88.67 35.17, 83.27 35 M92.02 26.25 C91.82 30.07, 87.45 33.44, 83.27 35 M83.27 35 C53.19 35.78, 25.61 37.17, 8.75 35 M83.27 35 C62.96 34.59, 41.5 33.71, 8.75 35 M8.75 35 C1.97 34.35, -1.64 32.45, 0 26.25 M8.75 35 C1.05 36.02, 2.07 33.22, 0 26.25 M0 26.25 C1.29 21.7, -1.68 13.12, 0 8.75 M0 26.25 C0.32 21.05, 0.48 16.01, 0 8.75 M0 8.75 C-0.15 4.37, 4.89 0.74, 8.75 0 M0 8.75 C-1.74 2.33, 1.2 1.35, 8.75 0" stroke="#1e1e1e" stroke-width="2" fill="none"></path></g><g transform="translate(744.0384612814696 1366.3481870797837) rotate(0 34.35416793823242 12.5)"><text x="34.35416793823242" y="0" font-family="Virgil, Segoe UI Emoji" font-size="20px" fill="#1e1e1e" text-anchor="middle" style="white-space: pre;" direction="ltr" dominant-baseline="text-before-edge">sign Up</text></g><g stroke-linecap="round" transform="translate(260.7524908734631 1342.5304338047022) rotate(0 105.96549046069072 13.942827692196147)"><path d="M6.97 0 C82.83 -0.57, 164.04 -2.36, 204.96 0 C208.27 1.27, 209.62 2.06, 211.93 6.97 C209.73 11.52, 214.14 12.72, 211.93 20.91 C213.03 23.98, 211.43 26.58, 204.96 27.89 C127.44 32.99, 53.09 28.43, 6.97 27.89 C0.71 25.26, -3.51 29.07, 0 20.91 C-1.21 16.84, 2.61 14.1, 0 6.97 C1.79 1.41, 5.89 -1.67, 6.97 0" stroke="none" stroke-width="0" fill="#3882f6"></path><path d="M6.97 0 C75.49 -0.86, 147.04 -1.56, 204.96 0 M6.97 0 C70.93 -0.39, 133.53 -0.53, 204.96 0 M204.96 0 C208.54 1.54, 213.61 0.48, 211.93 6.97 M204.96 0 C208.19 -0.25, 210.95 4.5, 211.93 6.97 M211.93 6.97 C211.73 11.43, 212.93 17.48, 211.93 20.91 M211.93 6.97 C211.31 12.08, 211.33 16.52, 211.93 20.91 M211.93 20.91 C209.97 24.09, 210.12 28.98, 204.96 27.89 M211.93 20.91 C213.47 27.29, 210.73 26.25, 204.96 27.89 M204.96 27.89 C140.99 27.62, 75.97 28.38, 6.97 27.89 M204.96 27.89 C131.56 29.34, 60.1 29.66, 6.97 27.89 M6.97 27.89 C1.72 29.5, -0.39 24.42, 0 20.91 M6.97 27.89 C2.83 26.53, 2.06 24.06, 0 20.91 M0 20.91 C-0.52 14.4, -0.52 10.23, 0 6.97 M0 20.91 C-0.58 17.99, -0.34 13.59, 0 6.97 M0 6.97 C-1.31 4.08, 4.32 1.16, 6.97 0 M0 6.97 C-0.3 2.18, 3.72 -1.67, 6.97 0" stroke="#1e1e1e" stroke-width="2" fill="none"></path></g><g stroke-linecap="round" transform="translate(259.36833632300943 1384.3589168812905) rotate(0 160.34251846025558 16.731393230635263)"><path d="M8.37 0 C107.68 -2.62, 209.1 -0.68, 312.32 0 C317.66 -2.38, 321.79 1.39, 320.69 8.37 C318.72 13.67, 322.74 21.03, 320.69 25.1 C320.68 33.43, 319.58 34.32, 312.32 33.46 C214.03 30.24, 118.69 27.31, 8.37 33.46 C4.09 36.78, -2.45 28.78, 0 25.1 C0.17 21.17, -2.74 14.23, 0 8.37 C-2.81 4.12, 5.35 2.32, 8.37 0" stroke="none" stroke-width="0" fill="#3882f6"></path><path d="M8.37 0 C124.57 0.04, 238.4 1.76, 312.32 0 M8.37 0 C106.73 -2.2, 205.53 -2.22, 312.32 0 M312.32 0 C319.69 -1.3, 322.66 2.61, 320.69 8.37 M312.32 0 C319.18 -0.88, 319.1 1.91, 320.69 8.37 M320.69 8.37 C320.49 12.73, 321.84 18.83, 320.69 25.1 M320.69 8.37 C321.41 12.83, 320.46 16.27, 320.69 25.1 M320.69 25.1 C321.9 29.22, 319.81 32.63, 312.32 33.46 M320.69 25.1 C321.83 29.07, 318.66 33.68, 312.32 33.46 M312.32 33.46 C225.22 34.14, 138.98 32.82, 8.37 33.46 M312.32 33.46 C225.92 34.43, 138.31 34.31, 8.37 33.46 M8.37 33.46 C3.8 32.74, 1.81 30.27, 0 25.1 M8.37 33.46 C4.02 33.32, 2.04 32.4, 0 25.1 M0 25.1 C-1.56 22.34, -1.56 14.98, 0 8.37 M0 25.1 C0.9 20.79, 0.51 17.05, 0 8.37 M0 8.37 C1.98 1.86, 1.35 -1.74, 8.37 0 M0 8.37 C1.98 3.71, 1.77 1.45, 8.37 0" stroke="#1e1e1e" stroke-width="2" fill="none"></path></g><g stroke-linecap="round" transform="translate(229.56514221404495 946.4427434505707) rotate(0 318.6914967891988 108.4907223112167)"><path d="M32 0 C169.01 -4.35, 303.01 -4.1, 605.38 0 C630.13 -0.8, 634.16 12.57, 637.38 32 C639.46 78.83, 639.48 120.87, 637.38 184.98 C638.77 207.77, 623.65 214, 605.38 216.98 C451.46 215.65, 296.3 217.12, 32 216.98 C9.06 215.72, -2.94 208.32, 0 184.98 C-2.3 147.25, 3.86 107.1, 0 32 C1.39 14.13, 10.14 -1.26, 32 0" stroke="none" stroke-width="0" fill="#e5e7eb"></path><path d="M32 0 C241.84 2.14, 452.58 2.14, 605.38 0 M32 0 C169.21 0.84, 306.78 0.57, 605.38 0 M605.38 0 C627.79 -1.85, 639.3 9.68, 637.38 32 M605.38 0 C624.46 -2.11, 637.5 11.69, 637.38 32 M637.38 32 C637.12 85.6, 637.32 137.06, 637.38 184.98 M637.38 32 C637.98 65.24, 636.34 98.45, 637.38 184.98 M637.38 184.98 C635.83 206.89, 627 216.57, 605.38 216.98 M637.38 184.98 C638.78 208.32, 628.13 215.66, 605.38 216.98 M605.38 216.98 C423.26 214.12, 242.12 214.18, 32 216.98 M605.38 216.98 C438.84 218.39, 272.1 218.48, 32 216.98 M32 216.98 C11.6 215.52, 1.45 204.32, 0 184.98 M32 216.98 C11.91 215.34, -1.06 205.9, 0 184.98 M0 184.98 C0.22 150.23, 1.99 117.78, 0 32 M0 184.98 C2.06 146.35, 0.16 106.47, 0 32 M0 32 C1.33 11.59, 11.55 -0.38, 32 0 M0 32 C-1.07 10.84, 8.75 0.65, 32 0" stroke="#1e1e1e" stroke-width="2" fill="none"></path></g><g transform="translate(116.90169981393547 1049.717565650671) rotate(0 34.83333206176758 12.5)"><text x="0" y="0" font-family="Virgil, Segoe UI Emoji" font-size="20px" fill="#1e1e1e" text-anchor="start" style="white-space: pre;" direction="ltr" dominant-baseline="text-before-edge">padding</text></g><g stroke-linecap="round" transform="translate(263.9900829474118 962.0904437839191) rotate(0 287.3960961225017 70.93624151118013)"><path d="M32 0 C232.88 0.27, 434.77 1.18, 542.79 0 C561.08 -1.54, 574.02 12.39, 574.79 32 C573.89 52.61, 577.99 75.06, 574.79 109.87 C571.89 133.34, 562.49 139.71, 542.79 141.87 C429.97 139.4, 316.79 139.69, 32 141.87 C12.28 142.44, -1.26 132.58, 0 109.87 C-3.24 87.46, 0.8 65.47, 0 32 C-2.04 7.93, 10.04 -0.17, 32 0" stroke="none" stroke-width="0" fill="#e5e7eb"></path><path d="M32 0 C235.83 -1.56, 437.7 -0.68, 542.79 0 M32 0 C200.17 1.64, 368.13 1.34, 542.79 0 M542.79 0 C563.8 1.39, 575.18 8.95, 574.79 32 M542.79 0 C566.26 -1.97, 574.47 10.68, 574.79 32 M574.79 32 C574.54 57.91, 576.39 79.39, 574.79 109.87 M574.79 32 C574.1 49.44, 574.58 66.07, 574.79 109.87 M574.79 109.87 C574.44 131.47, 565.95 143.21, 542.79 141.87 M574.79 109.87 C574.87 129.28, 563.54 139.84, 542.79 141.87 M542.79 141.87 C349.63 141.65, 156 141.06, 32 141.87 M542.79 141.87 C417.27 142.34, 291.68 141.76, 32 141.87 M32 141.87 C9.54 141.14, 1.54 132.53, 0 109.87 M32 141.87 C12.02 143.96, -2.01 132.6, 0 109.87 M0 109.87 C1.07 81.51, -0.92 53.82, 0 32 M0 109.87 C0.09 85.04, -0.39 58.34, 0 32 M0 32 C0.45 11.63, 11.08 0.12, 32 0 M0 32 C-1.02 10.26, 11.05 0.6, 32 0" stroke="#1e1e1e" stroke-width="2" fill="none"></path></g><g stroke-linecap="round" transform="translate(281.7241433252068 1118.5674471174048) rotate(0 274.8779358558228 12.518160266678933)"><path d="M6.26 0 C181.99 -0.65, 361.34 1.06, 543.5 0 C550.4 1.6, 546.41 3.27, 549.76 6.26 C550.1 10.72, 548.18 16.06, 549.76 18.78 C553.03 21.05, 550.59 27.31, 543.5 25.04 C395.45 20.18, 246.29 20.88, 6.26 25.04 C3.9 23.96, 3.16 22.62, 0 18.78 C-0.52 14.56, -2.03 12.84, 0 6.26 C1.76 -0.23, 4.24 3.48, 6.26 0" stroke="none" stroke-width="0" fill="#e5e7eb"></path><path d="M6.26 0 C175.77 -2.41, 346.06 -2.82, 543.5 0 M6.26 0 C122.5 1.73, 239.27 1.75, 543.5 0 M543.5 0 C548.57 1.92, 548.91 1.34, 549.76 6.26 M543.5 0 C549.31 -0.54, 547.9 3.45, 549.76 6.26 M549.76 6.26 C548.84 8.53, 549.88 12.82, 549.76 18.78 M549.76 6.26 C549.9 9.88, 550.04 13.81, 549.76 18.78 M549.76 18.78 C549.84 23.98, 545.9 24.65, 543.5 25.04 M549.76 18.78 C550.3 22.33, 546.37 23.29, 543.5 25.04 M543.5 25.04 C392.37 25.44, 240.13 25.87, 6.26 25.04 M543.5 25.04 C337.54 24.96, 131.03 25.54, 6.26 25.04 M6.26 25.04 C2.43 26.38, 0.25 24.17, 0 18.78 M6.26 25.04 C1.17 22.85, -1.63 23.44, 0 18.78 M0 18.78 C0.7 15.01, -0.44 10.52, 0 6.26 M0 18.78 C-0.17 14.81, -0.46 11.52, 0 6.26 M0 6.26 C-1.88 0.15, 1.95 1.19, 6.26 0 M0 6.26 C-0.23 -0.04, 0.43 1.1, 6.26 0" stroke="#1e1e1e" stroke-width="2" fill="none"></path></g><g stroke-linecap="round" transform="translate(269.7000994661523 542.5095588792527) rotate(0 261.36428242325167 24.16724529256095)"><path d="M12.08 0 C169.25 -0.31, 326.83 -1.02, 510.64 0 M12.08 0 C113.22 0.26, 214.81 0.86, 510.64 0 M510.64 0 C517.41 1.2, 524.66 5.09, 522.73 12.08 M510.64 0 C518.15 2.15, 522.23 3.14, 522.73 12.08 M522.73 12.08 C523.19 19.85, 520.81 31.1, 522.73 36.25 M522.73 12.08 C523.35 21.09, 522.26 29.36, 522.73 36.25 M522.73 36.25 C521.42 44.45, 519.87 49.82, 510.64 48.33 M522.73 36.25 C523.85 46.6, 520.27 50.4, 510.64 48.33 M510.64 48.33 C361.58 49.39, 212.64 47.95, 12.08 48.33 M510.64 48.33 C311.79 50.32, 113.19 50.38, 12.08 48.33 M12.08 48.33 C5.41 47.89, -1.03 44.09, 0 36.25 M12.08 48.33 C4.97 46.8, -1.84 45.19, 0 36.25 M0 36.25 C-0.69 31.66, -0.4 23.99, 0 12.08 M0 36.25 C-0.4 30.11, 0.55 22.56, 0 12.08 M0 12.08 C-1.3 5.6, 3.35 -1.55, 12.08 0 M0 12.08 C0.92 4.05, 6.17 1.42, 12.08 0" stroke="#1e1e1e" stroke-width="2" fill="none"></path></g><g stroke-linecap="round" transform="translate(103.2146318951767 605.1653800081149) rotate(0 445.751413173902 114.57064434991855)"><path d="M32 0 C330.83 -1.91, 630.86 -2.87, 859.5 0 M32 0 C261.2 1.1, 490.83 1, 859.5 0 M859.5 0 C879.54 -0.62, 892.28 12.01, 891.5 32 M859.5 0 C881.28 -1.81, 891.3 10.01, 891.5 32 M891.5 32 C893.36 77.96, 892.27 126.5, 891.5 197.14 M891.5 32 C889.89 88.32, 890.08 144.52, 891.5 197.14 M891.5 197.14 C892.69 217.41, 879.99 227.84, 859.5 229.14 M891.5 197.14 C889.91 216.22, 879.94 230.54, 859.5 229.14 M859.5 229.14 C658.23 227.75, 456.58 227.59, 32 229.14 M859.5 229.14 C639.03 231.16, 418.98 230.82, 32 229.14 M32 229.14 C12.56 227.85, 0.25 218.18, 0 197.14 M32 229.14 C9.44 227, -1.25 219.39, 0 197.14 M0 197.14 C1.01 137.14, 2.19 76.68, 0 32 M0 197.14 C1.51 141.39, 1.2 84.81, 0 32 M0 32 C-1.82 9.71, 10.29 -1.41, 32 0 M0 32 C0.47 8.98, 11.56 1.43, 32 0" stroke="#1e1e1e" stroke-width="2" fill="none"></path></g><g stroke-linecap="round" transform="translate(178.40161724981078 642.7588726854319) rotate(0 80.55748430853646 77.87223483158527)"><path d="M32 0 C62.87 0.15, 92.78 0.29, 129.11 0 M32 0 C56.24 0.25, 80.82 0.46, 129.11 0 M129.11 0 C149.67 -0.37, 163.06 11.88, 161.11 32 M129.11 0 C152.19 1.89, 163.12 11.52, 161.11 32 M161.11 32 C158.58 59.28, 159.52 91.12, 161.11 123.74 M161.11 32 C161.34 64.29, 160.46 94.36, 161.11 123.74 M161.11 123.74 C161.11 146.11, 152.2 154.76, 129.11 155.74 M161.11 123.74 C161.18 144.36, 150.36 154.15, 129.11 155.74 M129.11 155.74 C91.95 156.84, 52.59 157.35, 32 155.74 M129.11 155.74 C100.76 155.07, 73.38 155.27, 32 155.74 M32 155.74 C11.73 156.71, -0.66 145.13, 0 123.74 M32 155.74 C11.45 157.51, 1.44 144.64, 0 123.74 M0 123.74 C0.03 95.39, -0.35 62.46, 0 32 M0 123.74 C0.31 98.49, 1.33 75.71, 0 32 M0 32 C1.34 10.95, 11.81 -1.23, 32 0 M0 32 C0.78 12.76, 9.68 0.46, 32 0" stroke="#1e1e1e" stroke-width="2" fill="none"></path></g><g stroke-linecap="round" transform="translate(400.382240677778 640.9687063674644) rotate(0 84.13781694447158 75.18698535463409)"><path d="M32 0 C72.2 -0.92, 111.41 1.06, 136.28 0 M32 0 C65.37 0.74, 96.87 -0.12, 136.28 0 M136.28 0 C156.08 -0.59, 168.16 11.52, 168.28 32 M136.28 0 C157.44 -1.58, 166.96 10.22, 168.28 32 M168.28 32 C165.58 55.31, 166.44 81.69, 168.28 118.37 M168.28 32 C167.41 51.25, 167.31 72.32, 168.28 118.37 M168.28 118.37 C166.7 141.45, 158.63 148.5, 136.28 150.37 M168.28 118.37 C166.96 140.38, 158.32 150.86, 136.28 150.37 M136.28 150.37 C112.17 151.15, 89.16 150.75, 32 150.37 M136.28 150.37 C111.11 149.14, 84.57 149.43, 32 150.37 M32 150.37 C10.68 149.4, -1.02 140.57, 0 118.37 M32 150.37 C10.1 151.6, 1.82 141.23, 0 118.37 M0 118.37 C0.06 94.46, -0.05 65.58, 0 32 M0 118.37 C-0.38 95.37, 0.44 71.5, 0 32 M0 32 C-1.48 10.2, 12.32 -1.91, 32 0 M0 32 C-2.27 12.03, 10.64 0.96, 32 0" stroke="#1e1e1e" stroke-width="2" fill="none"></path></g><g stroke-linecap="round" transform="translate(611.6218661979406 642.7588726854319) rotate(0 72.50173587768268 71.60665271869908)"><path d="M32 0 C55.78 1.47, 77.96 -0.58, 113 0 M32 0 C61.77 0.47, 90.15 -0.2, 113 0 M113 0 C135.32 0.17, 144.3 12.6, 145 32 M113 0 C136.14 1.83, 144.45 10.01, 145 32 M145 32 C142.73 55.04, 146.22 81.04, 145 111.21 M145 32 C145.05 61.23, 143.34 89.67, 145 111.21 M145 111.21 C145.46 131.91, 135.06 141.67, 113 143.21 M145 111.21 C143.14 131.76, 136.18 141.38, 113 143.21 M113 143.21 C92.93 142.35, 71.25 143.71, 32 143.21 M113 143.21 C91.51 143.75, 70.66 143.21, 32 143.21 M32 143.21 C10.82 143.03, -0.54 133, 0 111.21 M32 143.21 C12.96 141.54, -0.63 133.31, 0 111.21 M0 111.21 C-1.6 89.77, -2.01 71.75, 0 32 M0 111.21 C1.39 79.94, 0.38 50.79, 0 32 M0 32 C-0.37 12.03, 12.64 -1.72, 32 0 M0 32 C1.66 10.03, 8.78 1.77, 32 0" stroke="#1e1e1e" stroke-width="2" fill="none"></path></g><g stroke-linecap="round" transform="translate(783.4778327228182 644.5490390033995) rotate(0 76.97715167260162 68.92140324174784)"><path d="M32 0 C53.92 -1, 76.28 1.03, 121.95 0 M32 0 C67.19 -0.51, 100.73 0.77, 121.95 0 M121.95 0 C142.92 1.36, 155.93 8.95, 153.95 32 M121.95 0 C144.95 -0.63, 152.07 12.43, 153.95 32 M153.95 32 C155.66 59.16, 154.37 90.81, 153.95 105.84 M153.95 32 C153.95 62.1, 153.56 90.85, 153.95 105.84 M153.95 105.84 C152.98 126.91, 145.1 138.47, 121.95 137.84 M153.95 105.84 C155.61 128.35, 145.42 139.66, 121.95 137.84 M121.95 137.84 C101.62 138.88, 78.64 137.2, 32 137.84 M121.95 137.84 C95.81 138.78, 69.16 139, 32 137.84 M32 137.84 C11.83 137.28, -0.17 128.57, 0 105.84 M32 137.84 C11.26 139.96, -0.15 128.79, 0 105.84 M0 105.84 C-1 85.18, 1.7 66.04, 0 32 M0 105.84 C1.36 77.27, 1.35 50.96, 0 32 M0 32 C-0.18 11.15, 9.05 0.43, 32 0 M0 32 C-0.83 9.43, 9.45 -1.75, 32 0" stroke="#1e1e1e" stroke-width="2" fill="none"></path></g><g stroke-linecap="round" transform="translate(565.0775419307861 213.11895637323732) rotate(0 193.3379623404876 110.09522855499984)"><path d="M32 0 C127.04 0.55, 220.73 0.51, 354.68 0 M32 0 C159.28 -1.53, 288 -2.31, 354.68 0 M354.68 0 C377.86 0.87, 386.5 11.15, 386.68 32 M354.68 0 C374.15 0.49, 385.85 9.43, 386.68 32 M386.68 32 C386.77 71.84, 384.17 107.53, 386.68 188.19 M386.68 32 C386.95 67.73, 387.8 105.02, 386.68 188.19 M386.68 188.19 C387.07 208.44, 377.89 219.47, 354.68 220.19 M386.68 188.19 C388.37 207.69, 374.36 220.79, 354.68 220.19 M354.68 220.19 C283.59 220.26, 211.09 220.39, 32 220.19 M354.68 220.19 C280.11 218.57, 204.42 217.71, 32 220.19 M32 220.19 C11.79 220.31, -0.5 208.91, 0 188.19 M32 220.19 C11.78 222.03, -0.44 210.59, 0 188.19 M0 188.19 C-0.56 137.57, -2.66 83.09, 0 32 M0 188.19 C0.03 128.64, 0.6 70.17, 0 32 M0 32 C1.13 8.87, 11 0.36, 32 0 M0 32 C0.89 11.48, 8.72 1.5, 32 0" stroke="#1e1e1e" stroke-width="2" fill="none"></path></g><g stroke-linecap="round" transform="translate(121.11629507485156 225.6501205990096) rotate(0 199.60354445337373 103.8296464421137)"><path d="M32 0 C137.45 -3.01, 242.12 -1.83, 367.21 0 M32 0 C153.26 -0.74, 275.61 -0.46, 367.21 0 M367.21 0 C389.15 0.4, 399.41 10.43, 399.21 32 M367.21 0 C388.33 -0.8, 400.77 10.23, 399.21 32 M399.21 32 C396.76 79.43, 398.66 123.16, 399.21 175.66 M399.21 32 C398.51 63.71, 398.43 96.84, 399.21 175.66 M399.21 175.66 C400.8 197.84, 386.6 209.03, 367.21 207.66 M399.21 175.66 C397.81 198.48, 388.9 205.59, 367.21 207.66 M367.21 207.66 C265.47 207.54, 164.54 208.5, 32 207.66 M367.21 207.66 C246.37 209.32, 124.24 209.28, 32 207.66 M32 207.66 C8.86 206.62, 1.8 197.39, 0 175.66 M32 207.66 C11.09 206.73, -2.12 199.16, 0 175.66 M0 175.66 C-2.41 121.72, -0.79 66.06, 0 32 M0 175.66 C-0.19 121.34, -0.76 68.02, 0 32 M0 32 C-1.57 11.67, 9.71 -0.08, 32 0 M0 32 C1.69 8.64, 11.51 1.57, 32 0" stroke="#1e1e1e" stroke-width="2" fill="none"></path></g><g stroke-linecap="round" transform="translate(158.7097877521686 256.08294800445674) rotate(0 155.74446966317055 31.32791056443085)"><path d="M15.66 0 C77.68 2.15, 138.46 1.59, 295.82 0 M15.66 0 C118.72 -2.04, 222.02 -1.19, 295.82 0 M295.82 0 C306.3 0.85, 311.47 5.26, 311.49 15.66 M295.82 0 C306.51 1.82, 313.11 2.92, 311.49 15.66 M311.49 15.66 C310.42 25.99, 313.49 35.63, 311.49 46.99 M311.49 15.66 C310.51 22.03, 311.11 28.74, 311.49 46.99 M311.49 46.99 C312.97 58.88, 305.72 61.12, 295.82 62.66 M311.49 46.99 C309.41 56.31, 306.91 63.99, 295.82 62.66 M295.82 62.66 C201.29 62.74, 104.78 61.59, 15.66 62.66 M295.82 62.66 C203.39 62.12, 109.02 62.11, 15.66 62.66 M15.66 62.66 C4.49 61.24, 0.96 55.93, 0 46.99 M15.66 62.66 C6.24 61.96, 1.28 58.32, 0 46.99 M0 46.99 C0.49 37.35, -0.75 28.48, 0 15.66 M0 46.99 C0.95 36.98, -0.45 26.92, 0 15.66 M0 15.66 C0.59 4.85, 3.98 0.83, 15.66 0 M0 15.66 C-0.81 2.98, 3.54 -2.14, 15.66 0" stroke="#1e1e1e" stroke-width="2" fill="none"></path></g><g stroke-linecap="round" transform="translate(164.08028670607098 325.89943440518834) rotate(0 153.95430334520313 28.642661087479667)"><path d="M14.32 0 C86.8 -0.35, 161.13 -0.17, 293.59 0 M14.32 0 C108.58 1.71, 203.56 1.24, 293.59 0 M293.59 0 C304.29 0.46, 306.5 5.17, 307.91 14.32 M293.59 0 C304.81 0.25, 306.36 5.17, 307.91 14.32 M307.91 14.32 C308.69 23.06, 305.91 31.73, 307.91 42.96 M307.91 14.32 C308.39 20.66, 307.78 27.13, 307.91 42.96 M307.91 42.96 C309.54 52.21, 304.88 57.76, 293.59 57.29 M307.91 42.96 C308.23 54.68, 303.95 57.75, 293.59 57.29 M293.59 57.29 C192.25 57.76, 90.23 58.06, 14.32 57.29 M293.59 57.29 C227.43 59.3, 161.02 59.04, 14.32 57.29 M14.32 57.29 C5.42 55.82, 0.55 51.68, 0 42.96 M14.32 57.29 C4.36 56.83, -1.11 50.61, 0 42.96 M0 42.96 C-1.77 30.06, 0.78 22.2, 0 14.32 M0 42.96 C0.34 33.67, 0.87 23.76, 0 14.32 M0 14.32 C-0.39 4.68, 5.21 -1.22, 14.32 0 M0 14.32 C0.76 2.95, 4.94 -0.89, 14.32 0" stroke="#1e1e1e" stroke-width="2" fill="none"></path></g><g stroke-linecap="round" transform="translate(178.40161724981078 399.2962534418549) rotate(0 52.809906380040616 10.74099790780491)"><path d="M5.37 0 C37.27 1.49, 67.96 -0.76, 100.25 0 M5.37 0 C33.7 -0.22, 61.44 0.19, 100.25 0 M100.25 0 C105.66 -0.47, 106.89 0.78, 105.62 5.37 M100.25 0 C101.8 0.03, 103.62 0.92, 105.62 5.37 M105.62 5.37 C105.9 8.33, 106.53 12.5, 105.62 16.11 M105.62 5.37 C105.66 8.67, 105.84 11.82, 105.62 16.11 M105.62 16.11 C105.72 20.88, 102.93 21.15, 100.25 21.48 M105.62 16.11 C104.73 17.53, 104.47 21.82, 100.25 21.48 M100.25 21.48 C74.96 21.44, 47.73 23.86, 5.37 21.48 M100.25 21.48 C78.37 21.04, 58.88 21.41, 5.37 21.48 M5.37 21.48 C2.51 20.19, -0.17 19.55, 0 16.11 M5.37 21.48 C2.7 23.2, -0.87 17.92, 0 16.11 M0 16.11 C-0.26 13.08, -0.41 8.68, 0 5.37 M0 16.11 C0.17 13.93, -0.16 11.2, 0 5.37 M0 5.37 C1.31 0.62, 3.36 0.23, 5.37 0 M0 5.37 C-0.97 -0.39, 2.21 0.3, 5.37 0" stroke="#1e1e1e" stroke-width="2" fill="none"></path></g></svg>